HIERARCHY
ROOT Hips
{
  OFFSET 0.000000 95.000000 0.000000
  CHANNELS 6 Xposition Yposition Zposition Zrotation Xrotation Yrotation
  JOINT Spine
  {
    OFFSET 0.000000 10.000000 0.000000
    CHANNELS 3 Zrotation Xrotation Yrotation
    JOINT Spine1
    {
      OFFSET 0.000000 12.000000 0.000000
      CHANNELS 3 Zrotation Xrotation Yrotation
      JOINT Spine2
      {
        OFFSET 0.000000 12.000000 0.000000
        CHANNELS 3 Zrotation Xrotation Yrotation
        JOINT Neck
        {
          OFFSET 0.000000 10.000000 0.000000
          CHANNELS 3 Zrotation Xrotation Yrotation
          JOINT Head
          {
            OFFSET 0.000000 8.000000 0.000000
            CHANNELS 3 Zrotation Xrotation Yrotation
            End Site
            {
              OFFSET 0.000000 10.000000 0.000000
            }
          }
        }
        JOINT LeftShoulder
        {
          OFFSET 6.000000 8.000000 0.000000
          CHANNELS 3 Zrotation Xrotation Yrotation
          JOINT LeftArm
          {
            OFFSET 12.000000 0.000000 0.000000
            CHANNELS 3 Zrotation Xrotation Yrotation
            JOINT LeftForeArm
            {
              OFFSET 24.000000 0.000000 0.000000
              CHANNELS 3 Zrotation Xrotation Yrotation
              JOINT LeftHand
              {
                OFFSET 22.000000 0.000000 0.000000
                CHANNELS 3 Zrotation Xrotation Yrotation
                JOINT LeftHandThumb1
                {
                  OFFSET 1.800000 -1.400000 0.500000
                  CHANNELS 3 Zrotation Xrotation Yrotation
                  JOINT LeftHandThumb2
                  {
                    OFFSET 2.400000 0.000000 0.000000
                    CHANNELS 3 Zrotation Xrotation Yrotation
                    JOINT LeftHandThumb3
                    {
                      OFFSET 1.900000 0.000000 0.000000
                      CHANNELS 3 Zrotation Xrotation Yrotation
                      End Site
                      {
                        OFFSET 1.600000 0.000000 0.000000
                      }
                    }
                  }
                }
                JOINT LeftHandIndex1
                {
                  OFFSET 6.600000 1.200000 0.300000
                  CHANNELS 3 Zrotation Xrotation Yrotation
                  JOINT LeftHandIndex2
                  {
                    OFFSET 2.000000 0.000000 0.000000
                    CHANNELS 3 Zrotation Xrotation Yrotation
                    JOINT LeftHandIndex3
                    {
                      OFFSET 1.200000 0.000000 0.000000
                      CHANNELS 3 Zrotation Xrotation Yrotation
                      End Site
                      {
                        OFFSET 1.000000 0.000000 0.000000
                      }
                    }
                  }
                }
                JOINT LeftHandMiddle1
                {
                  OFFSET 7.200000 0.000000 0.300000
                  CHANNELS 3 Zrotation Xrotation Yrotation
                  JOINT LeftHandMiddle2
                  {
                    OFFSET 3.000000 0.000000 0.000000
                    CHANNELS 3 Zrotation Xrotation Yrotation
                    JOINT LeftHandMiddle3
                    {
                      OFFSET 2.000000 0.000000 0.000000
                      CHANNELS 3 Zrotation Xrotation Yrotation
                      End Site
                      {
                        OFFSET 1.600000 0.000000 0.000000
                      }
                    }
                  }
                }
                JOINT LeftHandRing1
                {
                  OFFSET 7.100000 -1.000000 0.400000
                  CHANNELS 3 Zrotation Xrotation Yrotation
                  JOINT LeftHandRing2
                  {
                    OFFSET 2.600000 0.000000 0.000000
                    CHANNELS 3 Zrotation Xrotation Yrotation
                    JOINT LeftHandRing3
                    {
                      OFFSET 1.600000 0.000000 0.000000
                      CHANNELS 3 Zrotation Xrotation Yrotation
                      End Site
                      {
                        OFFSET 1.300000 0.000000 0.000000
                      }
                    }
                  }
                }
                JOINT LeftHandPinky1
                {
                  OFFSET 6.500000 -2.000000 0.500000
                  CHANNELS 3 Zrotation Xrotation Yrotation
                  JOINT LeftHandPinky2
                  {
                    OFFSET 1.900000 0.000000 0.000000
                    CHANNELS 3 Zrotation Xrotation Yrotation
                    JOINT LeftHandPinky3
                    {
                      OFFSET 1.400000 0.000000 0.000000
                      CHANNELS 3 Zrotation Xrotation Yrotation
                      End Site
                      {
                        OFFSET 1.300000 0.000000 0.000000
                      }
                    }
                  }
                }
              }
            }
          }
        }
        JOINT RightShoulder
        {
          OFFSET -6.000000 8.000000 0.000000
          CHANNELS 3 Zrotation Xrotation Yrotation
          JOINT RightArm
          {
            OFFSET -12.000000 0.000000 0.000000
            CHANNELS 3 Zrotation Xrotation Yrotation
            JOINT RightForeArm
            {
              OFFSET -24.000000 0.000000 0.000000
              CHANNELS 3 Zrotation Xrotation Yrotation
              JOINT RightHand
              {
                OFFSET -22.000000 0.000000 0.000000
                CHANNELS 3 Zrotation Xrotation Yrotation
                JOINT RightHandThumb1
                {
                  OFFSET -1.800000 -1.400000 0.500000
                  CHANNELS 3 Zrotation Xrotation Yrotation
                  JOINT RightHandThumb2
                  {
                    OFFSET -2.400000 0.000000 0.000000
                    CHANNELS 3 Zrotation Xrotation Yrotation
                    JOINT RightHandThumb3
                    {
                      OFFSET -1.900000 0.000000 0.000000
                      CHANNELS 3 Zrotation Xrotation Yrotation
                      End Site
                      {
                        OFFSET -1.600000 0.000000 0.000000
                      }
                    }
                  }
                }
                JOINT RightHandIndex1
                {
                  OFFSET -6.600000 1.200000 0.300000
                  CHANNELS 3 Zrotation Xrotation Yrotation
                  JOINT RightHandIndex2
                  {
                    OFFSET -2.000000 0.000000 0.000000
                    CHANNELS 3 Zrotation Xrotation Yrotation
                    JOINT RightHandIndex3
                    {
                      OFFSET -1.200000 0.000000 0.000000
                      CHANNELS 3 Zrotation Xrotation Yrotation
                      End Site
                      {
                        OFFSET -1.000000 0.000000 0.000000
                      }
                    }
                  }
                }
                JOINT RightHandMiddle1
                {
                  OFFSET -7.200000 0.000000 0.300000
                  CHANNELS 3 Zrotation Xrotation Yrotation
                  JOINT RightHandMiddle2
                  {
                    OFFSET -3.000000 0.000000 0.000000
                    CHANNELS 3 Zrotation Xrotation Yrotation
                    JOINT RightHandMiddle3
                    {
                      OFFSET -2.000000 0.000000 0.000000
                      CHANNELS 3 Zrotation Xrotation Yrotation
                      End Site
                      {
                        OFFSET -1.600000 0.000000 0.000000
                      }
                    }
                  }
                }
                JOINT RightHandRing1
                {
                  OFFSET -7.100000 -1.000000 0.400000
                  CHANNELS 3 Zrotation Xrotation Yrotation
                  JOINT RightHandRing2
                  {
                    OFFSET -2.600000 0.000000 0.000000
                    CHANNELS 3 Zrotation Xrotation Yrotation
                    JOINT RightHandRing3
                    {
                      OFFSET -1.600000 0.000000 0.000000
                      CHANNELS 3 Zrotation Xrotation Yrotation
                      End Site
                      {
                        OFFSET -1.300000 0.000000 0.000000
                      }
                    }
                  }
                }
                JOINT RightHandPinky1
                {
                  OFFSET -6.500000 -2.000000 0.500000
                  CHANNELS 3 Zrotation Xrotation Yrotation
                  JOINT RightHandPinky2
                  {
                    OFFSET -1.900000 0.000000 0.000000
                    CHANNELS 3 Zrotation Xrotation Yrotation
                    JOINT RightHandPinky3
                    {
                      OFFSET -1.400000 0.000000 0.000000
                      CHANNELS 3 Zrotation Xrotation Yrotation
                      End Site
                      {
                        OFFSET -1.300000 0.000000 0.000000
                      }
                    }
                  }
                }
              }
            }
          }
        }
      }
    }
  }
  JOINT LeftUpLeg
  {
    OFFSET 10.000000 -5.000000 0.000000
    CHANNELS 3 Zrotation Xrotation Yrotation
    JOINT LeftLeg
    {
      OFFSET 0.000000 -42.000000 0.000000
      CHANNELS 3 Zrotation Xrotation Yrotation
      JOINT LeftFoot
      {
        OFFSET 0.000000 -42.000000 4.000000
        CHANNELS 3 Zrotation Xrotation Yrotation
        End Site
        {
          OFFSET 0.000000 0.000000 12.000000
        }
      }
    }
  }
  JOINT RightUpLeg
  {
    OFFSET -10.000000 -5.000000 0.000000
    CHANNELS 3 Zrotation Xrotation Yrotation
    JOINT RightLeg
    {
      OFFSET 0.000000 -42.000000 0.000000
      CHANNELS 3 Zrotation Xrotation Yrotation
      JOINT RightFoot
      {
        OFFSET 0.000000 -42.000000 4.000000
        CHANNELS 3 Zrotation Xrotation Yrotation
        End Site
        {
          OFFSET 0.000000 0.000000 12.000000
        }
      }
    }
  }
}
MOTION
Frames: 7
Frame Time: 0.033333
0.0000 95.0000 0.0000 0.0000 0.0000 0.0000 0.0000 0.0000 0.0000 0.0000 0.0000 0.0000 0.0000 0.0000 0.0000 0.0000 0.0000 0.0000 0.0000 0.0000 0.0000 0.0000 0.0000 0.0000 -78.7883 9.2659 11.2711 -4.9935 -5.6858 8.4023 -157.3969 36.7375 175.1411 48.7466 -12.5613 -8.9391 16.6313 0.0000 0.0000 16.9278 0.0000 0.0000 -5.4920 0.5999 -2.6586 60.5424 0.0000 0.0000 57.0095 0.0000 0.0000 6.9724 0.2843 -9.4368 68.6384 0.0000 0.0000 47.0330 0.0000 0.0000 18.9199 -0.6348 -16.2190 69.4650 0.0000 0.0000 36.3909 0.0000 0.0000 27.8764 -2.9404 -16.8754 61.5087 0.0000 0.0000 43.8442 0.0000 0.0000 0.0000 0.0000 0.0000 87.7312 0.3992 -0.4154 -2.0243 6.2382 6.2815 161.5732 13.0828 176.5871 -61.1953 -12.4010 -4.1418 21.6503 0.0000 0.0000 7.7949 0.0000 0.0000 18.8599 0.8077 -2.1398 110.0000 0.0000 0.0000 23.8416 0.0000 0.0000 2.9376 0.0205 3.9727 110.0000 0.0000 0.0000 33.7435 0.0000 0.0000 -8.7549 -0.7149 3.5704 110.0000 0.0000 0.0000 23.3594 0.0000 0.0000 -18.0240 -1.8327 3.5446 110.0000 0.0000 0.0000 25.1463 0.0000 0.0000 0.0000 0.0000 0.0000 0.0000 0.0000 0.0000 0.0000 0.0000 0.0000 0.0000 0.0000 0.0000 0.0000 0.0000 0.0000 0.0000 0.0000 0.0000
0.0000 95.0000 0.0000 0.0000 0.0000 0.0000 0.0000 0.0000 0.0000 0.0000 0.0000 0.0000 0.0000 0.0000 0.0000 0.0000 0.0000 0.0000 0.0000 0.0000 0.0000 0.0000 0.0000 0.0000 -78.9700 9.2006 11.1558 -4.7165 -5.4473 7.9715 -157.3374 37.1434 175.6448 48.7466 -12.5613 -8.9391 16.6313 0.0000 0.0000 16.9278 0.0000 0.0000 -5.4920 0.5999 -2.6586 60.5424 0.0000 0.0000 57.0095 0.0000 0.0000 6.9724 0.2843 -9.4368 68.6384 0.0000 0.0000 47.0330 0.0000 0.0000 18.9199 -0.6348 -16.2190 69.4650 0.0000 0.0000 36.3909 0.0000 0.0000 27.8764 -2.9404 -16.8754 61.5087 0.0000 0.0000 43.8442 0.0000 0.0000 0.0000 0.0000 0.0000 87.9927 0.3401 -0.3522 -2.3280 6.2043 6.1857 161.5370 13.0792 176.5842 -61.1953 -12.4010 -4.1418 21.6503 0.0000 0.0000 7.7949 0.0000 0.0000 18.8599 0.8077 -2.1398 110.0000 0.0000 0.0000 23.8416 0.0000 0.0000 2.9376 0.0205 3.9727 110.0000 0.0000 0.0000 33.7435 0.0000 0.0000 -8.7549 -0.7149 3.5704 110.0000 0.0000 0.0000 23.3594 0.0000 0.0000 -18.0240 -1.8327 3.5446 110.0000 0.0000 0.0000 25.1463 0.0000 0.0000 0.0000 0.0000 0.0000 0.0000 0.0000 0.0000 0.0000 0.0000 0.0000 0.0000 0.0000 0.0000 0.0000 0.0000 0.0000 0.0000 0.0000 0.0000
0.0000 95.0000 0.0000 0.0000 0.0000 0.0000 0.0000 0.0000 0.0000 0.0000 0.0000 0.0000 0.0000 0.0000 0.0000 0.0000 0.0000 0.0000 0.0000 0.0000 0.0000 0.0000 0.0000 0.0000 -79.4796 8.7633 10.5314 -4.1193 -5.4116 7.6295 -157.1719 37.8286 176.5469 48.7466 -12.5613 -8.9391 16.6313 0.0000 0.0000 16.9278 0.0000 0.0000 -5.4920 0.5999 -2.6586 60.5424 0.0000 0.0000 57.0095 0.0000 0.0000 6.9724 0.2843 -9.4368 68.6384 0.0000 0.0000 47.0330 0.0000 0.0000 18.9199 -0.6348 -16.2190 69.4650 0.0000 0.0000 36.3909 0.0000 0.0000 27.8764 -2.9404 -16.8754 61.5087 0.0000 0.0000 43.8442 0.0000 0.0000 0.0000 0.0000 0.0000 88.1191 -0.0588 0.0608 -2.6414 6.1435 6.0596 161.3346 13.3768 176.2213 -61.1953 -12.4010 -4.1418 21.6503 0.0000 0.0000 7.7949 0.0000 0.0000 18.8599 0.8077 -2.1398 110.0000 0.0000 0.0000 23.8416 0.0000 0.0000 2.9376 0.0205 3.9727 110.0000 0.0000 0.0000 33.7435 0.0000 0.0000 -8.7549 -0.7149 3.5704 110.0000 0.0000 0.0000 23.3594 0.0000 0.0000 -18.0240 -1.8327 3.5446 110.0000 0.0000 0.0000 25.1463 0.0000 0.0000 0.0000 0.0000 0.0000 0.0000 0.0000 0.0000 0.0000 0.0000 0.0000 0.0000 0.0000 0.0000 0.0000 0.0000 0.0000 0.0000 0.0000 0.0000
0.0000 95.0000 0.0000 0.0000 0.0000 0.0000 0.0000 0.0000 0.0000 0.0000 0.0000 0.0000 0.0000 0.0000 0.0000 0.0000 0.0000 0.0000 0.0000 0.0000 0.0000 0.0000 0.0000 0.0000 -79.9905 8.1563 9.7150 -3.8399 -5.0155 6.9494 -157.4403 39.0397 177.6867 48.7466 -12.5613 -8.9391 16.6313 0.0000 0.0000 16.9278 0.0000 0.0000 -5.4920 0.5999 -2.6586 60.5424 0.0000 0.0000 57.0095 0.0000 0.0000 6.9724 0.2843 -9.4368 68.6384 0.0000 0.0000 47.0330 0.0000 0.0000 18.9199 -0.6348 -16.2190 69.4650 0.0000 0.0000 36.3909 0.0000 0.0000 27.8764 -2.9404 -16.8754 61.5087 0.0000 0.0000 43.8442 0.0000 0.0000 0.0000 0.0000 0.0000 88.2641 -0.2268 0.2338 -2.9659 6.4364 6.2867 161.0919 13.7843 175.7271 -61.1953 -12.4010 -4.1418 21.6503 0.0000 0.0000 7.7949 0.0000 0.0000 18.8599 0.8077 -2.1398 110.0000 0.0000 0.0000 23.8416 0.0000 0.0000 2.9376 0.0205 3.9727 110.0000 0.0000 0.0000 33.7435 0.0000 0.0000 -8.7549 -0.7149 3.5704 110.0000 0.0000 0.0000 23.3594 0.0000 0.0000 -18.0240 -1.8327 3.5446 110.0000 0.0000 0.0000 25.1463 0.0000 0.0000 0.0000 0.0000 0.0000 0.0000 0.0000 0.0000 0.0000 0.0000 0.0000 0.0000 0.0000 0.0000 0.0000 0.0000 0.0000 0.0000 0.0000 0.0000
0.0000 95.0000 0.0000 0.0000 0.0000 0.0000 0.0000 0.0000 0.0000 0.0000 0.0000 0.0000 0.0000 0.0000 0.0000 0.0000 0.0000 0.0000 0.0000 0.0000 0.0000 0.0000 0.0000 0.0000 -80.4642 8.1483 9.6249 -3.0594 -5.1974 6.8846 -157.0175 39.0146 178.0028 48.7466 -12.5613 -8.9391 16.6313 0.0000 0.0000 16.9278 0.0000 0.0000 -5.4920 0.5999 -2.6586 60.5424 0.0000 0.0000 57.0095 0.0000 0.0000 6.9724 0.2843 -9.4368 68.6384 0.0000 0.0000 47.0330 0.0000 0.0000 18.9199 -0.6348 -16.2190 69.4650 0.0000 0.0000 36.3909 0.0000 0.0000 27.8764 -2.9404 -16.8754 61.5087 0.0000 0.0000 43.8442 0.0000 0.0000 0.0000 0.0000 0.0000 88.3854 -0.5024 0.5168 -3.1134 6.3847 6.1896 161.0589 13.9794 175.5061 -61.1953 -12.4010 -4.1418 21.6503 0.0000 0.0000 7.7949 0.0000 0.0000 18.8599 0.8077 -2.1398 110.0000 0.0000 0.0000 23.8416 0.0000 0.0000 2.9376 0.0205 3.9727 110.0000 0.0000 0.0000 33.7435 0.0000 0.0000 -8.7549 -0.7149 3.5704 110.0000 0.0000 0.0000 23.3594 0.0000 0.0000 -18.0240 -1.8327 3.5446 110.0000 0.0000 0.0000 25.1463 0.0000 0.0000 0.0000 0.0000 0.0000 0.0000 0.0000 0.0000 0.0000 0.0000 0.0000 0.0000 0.0000 0.0000 0.0000 0.0000 0.0000 0.0000 0.0000 0.0000
0.0000 95.0000 0.0000 0.0000 0.0000 0.0000 0.0000 0.0000 0.0000 0.0000 0.0000 0.0000 0.0000 0.0000 0.0000 0.0000 0.0000 0.0000 0.0000 0.0000 0.0000 0.0000 0.0000 0.0000 -80.9838 7.8548 9.1941 -2.4856 -5.0128 6.4298 -156.9245 39.6625 178.8046 48.7466 -12.5613 -8.9391 16.6313 0.0000 0.0000 16.9278 0.0000 0.0000 -5.4920 0.5999 -2.6586 60.5424 0.0000 0.0000 57.0095 0.0000 0.0000 6.9724 0.2843 -9.4368 68.6384 0.0000 0.0000 47.0330 0.0000 0.0000 18.9199 -0.6348 -16.2190 69.4650 0.0000 0.0000 36.3909 0.0000 0.0000 27.8764 -2.9404 -16.8754 61.5087 0.0000 0.0000 43.8442 0.0000 0.0000 0.0000 0.0000 0.0000 88.6402 -0.8969 0.9184 -3.6847 6.4714 6.1513 160.7000 14.3754 174.9945 -61.1953 -12.4010 -4.1418 21.6503 0.0000 0.0000 7.7949 0.0000 0.0000 18.8599 0.8077 -2.1398 110.0000 0.0000 0.0000 23.8416 0.0000 0.0000 2.9376 0.0205 3.9727 110.0000 0.0000 0.0000 33.7435 0.0000 0.0000 -8.7549 -0.7149 3.5704 110.0000 0.0000 0.0000 23.3594 0.0000 0.0000 -18.0240 -1.8327 3.5446 110.0000 0.0000 0.0000 25.1463 0.0000 0.0000 0.0000 0.0000 0.0000 0.0000 0.0000 0.0000 0.0000 0.0000 0.0000 0.0000 0.0000 0.0000 0.0000 0.0000 0.0000 0.0000 0.0000 0.0000
0.0000 95.0000 0.0000 0.0000 0.0000 0.0000 0.0000 0.0000 0.0000 0.0000 0.0000 0.0000 0.0000 0.0000 0.0000 0.0000 0.0000 0.0000 0.0000 0.0000 0.0000 0.0000 0.0000 0.0000 -80.9157 7.9674 9.3369 -2.3523 -5.1094 6.5185 -156.6755 39.4344 178.7546 48.7466 -12.5613 -8.9391 16.6313 0.0000 0.0000 16.9278 0.0000 0.0000 -5.4920 0.5999 -2.6586 60.5424 0.0000 0.0000 57.0095 0.0000 0.0000 6.9724 0.2843 -9.4368 68.6384 0.0000 0.0000 47.0330 0.0000 0.0000 18.9199 -0.6348 -16.2190 69.4650 0.0000 0.0000 36.3909 0.0000 0.0000 27.8764 -2.9404 -16.8754 61.5087 0.0000 0.0000 43.8442 0.0000 0.0000 0.0000 0.0000 0.0000 88.7360 -1.0400 1.0632 -3.9989 6.3250 5.9522 160.4992 14.3449 174.9855 -61.1953 -12.4010 -4.1418 21.6503 0.0000 0.0000 7.7949 0.0000 0.0000 18.8599 0.8077 -2.1398 110.0000 0.0000 0.0000 23.8416 0.0000 0.0000 2.9376 0.0205 3.9727 110.0000 0.0000 0.0000 33.7435 0.0000 0.0000 -8.7549 -0.7149 3.5704 110.0000 0.0000 0.0000 23.3594 0.0000 0.0000 -18.0240 -1.8327 3.5446 110.0000 0.0000 0.0000 25.1463 0.0000 0.0000 0.0000 0.0000 0.0000 0.0000 0.0000 0.0000 0.0000 0.0000 0.0000 0.0000 0.0000 0.0000 0.0000 0.0000 0.0000 0.0000 0.0000 0.0000
